# xmcd
#
# Track frame offsets: 
#        150
#        16066
#        35624
#        48796
#        65026
#        82901
#        99650
#        117650
#        133247
#        147538
#        163304
#        180417
#        198666
#
# Disc length: 2812 seconds
#
# Revision: 0
# Processed by: cddbd v1.5.2PL0 Copyright (c) Steve Scherf et al.
# Submitted via: ExactAudioCopy v1.0b1
#
DISCID=bd0afa0d
DTITLE=Big Bad Voodoo Daddy - It Feels Like Christmas Time
DYEAR=2013
DGENRE=Swing
TTITLE0=Santa Claus Is Coming To Town
TTITLE1=Rudolph The Red-Nosed Reindeer
TTITLE2=All I Want For Christmas (Is My Two Front Teeth)
TTITLE3=Jingle Bells
TTITLE4=It Feels Like Christmastime
TTITLE5=Frosty The Snowman
TTITLE6=Run, Rudolph, Run
TTITLE7=You're A Mean One, Mr. Grinch
TTITLE8=Christmas Is Starting Now
TTITLE9=We Three Kings
TTITLE10=Winter Wonderland
TTITLE11=What Are You Doing New Years Eve!
TTITLE12=Auld Lang Syne
EXTD=
EXTT0=
EXTT1=
EXTT2=
EXTT3=
EXTT4=
EXTT5=
EXTT6=
EXTT7=
EXTT8=
EXTT9=
EXTT10=
EXTT11=
EXTT12=
PLAYORDER=
